<?xml version="1.0" standalone="no"?><!DOCTYPE svg PUBLIC "-//W3C//DTD SVG 1.1//EN" "http://www.w3.org/Graphics/SVG/1.1/DTD/svg11.dtd"><svg t="1747133334134" class="icon" viewBox="132 117 780 780" version="1.1" xmlns="http://www.w3.org/2000/svg" p-id="21028" xmlns:xlink="http://www.w3.org/1999/xlink" width="200" height="200"><path d="M651.031 279.822l19.526 68.634c1.563 5.495 5.812 9.818 11.277 11.478l68.939 20.934c6.409 1.946 13.36-0.1 17.693-5.208 2.266-2.671 6.316-7.386 11.62-13.46 8.842-10.124 17.883-20.244 26.586-29.668 2.902-3.134 2.902-3.134 5.812-6.241 16.527-17.589 32.56-32.185 32.061-32.122 3.643-0.467 25.337 20.477 27.654 30.191 2.935 12.309-29.984 71.267-69.211 105.923-12.548 11.087-29.797 16.873-51.245 18.008-17.747 0.939-36.719-1.265-58.173-5.852-1.637-0.35-27.593-6.547-31.764-6.767-9.632-0.507 1.88-10.94-77.103 62.972-32.585 30.492-72.957 68.644-136.776 129.157-0.434 0.412-0.434 0.412-0.869 0.824-131.493 124.686-195.506 185.057-195.842 185.208-32.529 14.633-92.233-51.751-80.49-93.26 0.091-0.323 96.542-83.197 199.438-168.948 2.528-2.107 2.528-2.107 5.057-4.213 45.899-38.232 95.081-78.943 144.265-119.486 17.214-14.19 33.2-27.346 47.544-39.135 14.753-12.119 14.753-12.119 18.027-14.803 5.402-4.43 7.499-11.74 5.267-18.36-1.464-4.341-3.77-12.38-6.097-22.925-4.432-20.087-6.802-40.278-6.053-58.759 0.981-24.188 7.251-42.915 19.206-54.818 35.952-35.792 90.98-66.153 109.307-65.914 2.213 0.029 27.323 23.451 29.363 29.785-1.491-4.627-1.138-5.768-0.738-6.483-1.196 2.136-3.376 5.27-6.396 9.142-5.867 7.522-14.459 17.287-25.131 28.679-3.117 3.317-3.117 3.317-6.263 6.623-9.172 9.612-19.022 19.589-28.874 29.34-5.911 5.85-10.499 10.313-13.098 12.81-4.483 4.306-6.222 10.735-4.522 16.714v0zM683.349 270.627l-4.522 16.714c2.712-2.605 7.418-7.184 13.458-13.161 10.064-9.96 20.132-20.157 29.549-30.026 3.246-3.411 3.246-3.411 6.475-6.847 34.003-36.298 44.507-49.764 39.726-64.611-6.081-18.878-42.492-52.842-60.907-53.080-29.133-0.382-91.712 34.147-133.45 75.699-18.878 18.795-27.78 45.383-29.073 77.269-0.881 21.749 1.809 44.677 6.816 67.36 2.61 11.827 5.242 21.005 7.069 26.422l5.267-18.36c-3.287 2.695-3.287 2.695-18.056 14.827-14.357 11.799-30.355 24.965-47.583 39.166-49.224 40.576-98.45 81.323-144.398 119.596-2.532 2.109-2.532 2.109-5.063 4.219-150.651 125.549-206.952 173.925-210.258 185.614-18.882 66.744 65.481 160.546 126.606 133.049 6.352-2.857-9.122 11.736 205.177-191.468 0.434-0.412 0.434-0.412 0.869-0.824 63.766-60.463 104.101-98.579 136.614-129.005 19.673-18.409 34.928-32.535 45.664-42.264 5.634-5.107 9.988-8.968 12.98-11.513-5.957 5.068 0.499 0.182-6.265-0.173 0.595 0.031 20.615 4.811 26.506 6.070 24.093 5.152 45.77 7.669 66.973 6.547 28.432-1.505 52.821-9.686 71.716-26.38 47.577-42.034 86.236-111.27 79.647-138.899-5.881-24.65-41.174-58.724-64.608-55.723-11.794 1.512-25.798 14.26-52.277 42.441-3.016 3.22-3.016 3.22-6.010 6.455-8.936 9.677-18.177 20.021-27.208 30.362-5.419 6.204-9.572 11.040-11.936 13.826l17.693-5.208-68.939-20.934 11.277 11.478-19.526-68.634z" stroke="#000000" stroke-width="8"  p-id="21029"></path><path d="M862.16 754.857c1.914 20.844-86.99 110.903-110.609 107.563-9.304-1.316-168.377-147.653-168.221-149.8 0.483-6.683 108.217-109.906 115.566-108.023 22.71 5.816 161.302 128.879 163.266 150.261v0zM707.231 572.046c-30.106-7.71-155.559 112.49-157.414 138.152-0.529 7.318 17.851 29.468 43.661 56.037 52.749 54.303 136.534 127.073 153.368 129.454 45.605 6.448 152.626-101.962 148.773-143.905-3.465-37.72-153.273-170.744-188.389-179.737z" stroke="#000000" stroke-width="8"  p-id="21030"></path><path d="M668.944 676.482l85.301 68.877c7.219 5.829 17.797 4.703 23.625-2.517 5.829-7.219 4.703-17.797-2.517-23.625l-85.301-68.877c-7.219-5.829-17.797-4.702-23.625 2.517-5.829 7.219-4.703 17.797 2.517 23.625v0z" stroke="#000000" stroke-width="8"  p-id="21031"></path><path d="M567.977 686.484c6.698 6.422 17.332 6.198 23.753-0.5 6.422-6.697 6.198-17.333-0.5-23.753l-65.367-64.803c-6.697-6.422-17.332-6.198-23.753 0.5-6.422 6.698-6.198 17.332 0.5 23.753l65.367 64.803z" stroke="#000000" stroke-width="8"  p-id="21032"></path><path d="M332.832 264.319l4.826 8.322c-1.806-7.536-4.566-18.796-7.458-30.083-0.433-1.688-0.433-1.688-0.868-3.372-4.331-16.733-6.853-25.514-8.966-29.55-7.243-13.849-97.534-56.96-113.94-51.29-13.857 4.789-63.138 52.135-69.173 66.634-4.987 11.986 1.074 26.052 19.833 61.020 1.984 3.683 1.984 3.683 3.98 7.331 5.176 9.43 10.708 19.14 16.238 28.601 3.32 5.679 5.908 10.026 7.404 12.501 2.307 3.819 6.039 6.563 10.373 7.627l57.17 14.037-7.621-4.189 160.496 153.89c6.698 6.422 10.037 6.697 16.458 0 6.422-6.697 13.493-17.831 6.796-24.253l-160.496-153.89-7.621-4.189-57.17-14.037 10.373 7.627c-1.417-2.344-3.923-6.553-7.155-12.082-5.389-9.218-10.776-18.674-15.791-27.812-1.924-3.517-1.924-3.517-3.826-7.048-8.538-15.915-17.018-35.597-18.421-32.228 2.397-5.76 44.461-46.174 49.126-47.785-0.292 0.1 73.249 35.213 73.194 35.109 0.263 0.502 3.098 10.378 6.209 22.394 0.424 1.641 0.424 1.641 0.847 3.29 2.84 11.083 5.563 22.194 7.33 29.573l4.826 8.322 162.634 153.007c6.758 6.358 17.39 6.034 23.748-0.725 6.358-6.757 6.034-17.39-0.725-23.748l-162.634-153.007z" stroke="#000000" stroke-width="8"  p-id="21033"></path><path d="M596.888 521.859c-6.757-6.358-17.39-6.034-23.748 0.725-6.358 6.757-6.758 17.811 0 24.169l48.669 49.22c6.758 6.358 27.438 30.519 40.541 16.272s-10.761-34.387-17.518-40.745l-47.945-49.64z" stroke="#000000" stroke-width="8"  p-id="21034"></path></svg>